<svg xmlns="http://www.w3.org/2000/svg" width="1080" height="1080" viewBox="0 0 1080 1080" xml:space="preserve"><g transform="translate(540 540)"/><g transform="translate(540 540)"/><path style="stroke:none;stroke-width:1;stroke-dasharray:none;stroke-linecap:butt;stroke-dashoffset:0;stroke-linejoin:miter;stroke-miterlimit:4;fill:#040404;fill-rule:nonzero;opacity:1" vector-effect="non-scaling-stroke" transform="translate(268.843 273.703)scale(1.31)" d="m0 0 3.895-.02c3.513-.018 7.026-.023 10.539-.024q3.302-.003 6.604-.011 11.55-.027 23.099-.025c7.143 0 14.288-.02 21.432-.052q9.237-.038 18.475-.035c3.667 0 7.333-.005 11-.027 4.102-.023 8.202-.013 12.304-.001l3.61-.034c16.754.123 31.212 5.728 43.16 17.367 4.664 4.751 8.607 10.064 12.623 15.358 2.344 3.037 4.792 5.983 7.26 8.92l1.335 1.612c4 4.739 7.84 8.332 13.79 10.263 3.401.298 3.401.298 7.165.251l2.153.01c2.375.007 4.75 0 7.124-.006l5.117.01q5.506.013 11.013.009c5.813-.003 11.626.011 17.44.029q24.795.069 49.59.077 13.695.006 27.392.055 8.655.03 17.309.012c3.604-.002 7.208.012 10.812.03q2.49.009 4.982-.005c14.044-.069 26.01 1.954 36.904 11.528 9.415 9.545 13.181 20.503 13.097 33.703l-.004 2.538q-.01 4.005-.03 8.009-.009 2.719-.014 5.437-.017 6.657-.05 13.313l3.115-.064c3.869-.073 7.738-.119 11.607-.156q2.497-.03 4.993-.082c12.059-.247 24.383-.398 33.723 8.489 6.896 6.719 10.657 13.715 10.817 23.36-.06 6.324-1.386 11.716-3.317 17.703l-1.941 6.328-1.008 3.228c-1.561 5.046-3.022 10.12-4.488 15.194l-1.75 6-.875 3-30.625 105-.876 3-1.747 5.989a5565 5565 0 0 0-4.412 15.186q-2.581 8.92-5.215 17.825l-.81 2.75c-4.712 15.917-9.953 29.732-24.757 38.968-7.908 4.164-15.885 6.401-24.806 6.416l-3.922.013h-4.304l-4.576.01q-6.29.014-12.58.017-6.784.008-13.568.022c-10.922.02-21.845.03-32.768.04l-15.437.014a89899 89899 0 0 1-67.987.046c-17.868.008-35.735.034-53.603.066q-27.525.05-55.051.055c-10.3.002-20.601.01-30.902.036q-13.16.034-26.32.02a2503 2503 0 0 0-13.42.017q-6.154.025-12.307 0a458 458 0 0 0-4.432.015c-15.843.12-29.153-3.7-41.075-14.38-11.474-12.005-13.525-25.465-13.522-41.383l-.012-4.066q-.013-5.571-.016-11.142-.007-6.015-.022-12.03c-.02-9.675-.03-19.352-.039-29.028l-.015-13.68a70695 70695 0 0 1-.046-60.245c-.008-15.832-.034-31.664-.066-47.496q-.05-24.397-.054-48.793c-.002-9.128-.011-18.256-.037-27.384q-.034-11.658-.02-23.316c.005-3.963.003-7.926-.017-11.889q-.025-5.45 0-10.9a556 556 0 0 0-.03-5.775c.092-12.506 3.925-22.998 12.556-32.159C-25.88 2.79-14.657-.01 0 0m-23.186 29.666c-4.908 7.635-5.117 13.756-5.068 22.713l-.014 4.01c-.013 3.663-.007 7.326.003 10.989.006 3.954-.004 7.908-.012 11.863-.014 7.743-.01 15.485-.002 23.228q.01 9.44.004 18.881l-.001 2.715-.003 5.46c-.009 17.067.001 34.133.017 51.2q.02 21.96-.002 43.919a34327 34327 0 0 0-.01 59.157q.004 9.428-.008 18.854-.014 11.491.01 22.983.014 5.862 0 11.723-.012 5.37.013 10.739c.005 1.903-.005 3.807-.016 5.71.071 10.273 2.033 16.937 9.25 24.492 6.32 5.839 12.117 6.72 20.68 6.426 7.26-.915 12.46-3.836 17.284-9.312 4.274-6.102 6.21-13.035 8.188-20.125l.682-2.444c1.262-4.556 2.495-9.12 3.72-13.685 2.425-8.988 5.079-17.91 7.707-26.84 1.471-5.008 2.93-10.02 4.39-15.031l1.75-6 .876-3 23.625-81 .875-3.003 1.745-5.971a1793 1793 0 0 0 4.45-15.448c10.709-37.7 10.709-37.7 27.078-47.274 9.377-4.889 17.319-6.604 27.782-6.583l3.19-.017c3.512-.017 7.025-.02 10.538-.023l7.57-.03q8.139-.033 16.278-.048 11.768-.024 23.534-.068 19.095-.068 38.188-.114 18.543-.044 37.086-.104l2.311-.008 11.477-.037q47.574-.153 95.148-.272.222-8.084.33-16.169.044-2.745.122-5.49c.84-13.194.84-13.194-4.532-24.713-8.82-7.479-17.934-7.331-28.945-7.224q-2.562-.003-5.124-.013-5.49-.012-10.982.017c-5.796.03-11.592.021-17.39.008a9237 9237 0 0 0-33.781.016c-14.33.025-28.66.037-42.99.01q-8.63-.014-17.261.025a1862 1862 0 0 1-10.766 0q-2.483 0-4.964.02c-15.022.119-26.89-2.95-38.092-13.487-3.707-3.877-6.932-8.144-10.22-12.373-12.477-16.824-12.477-16.824-30.405-26.627-2.845-.304-2.845-.304-5.793-.275l-3.432-.03-3.722-.002-3.954-.025c-3.568-.022-7.136-.03-10.705-.036q-3.348-.006-6.697-.017-11.694-.036-23.389-.041a4266 4266 0 0 1-21.761-.075q-9.36-.051-18.72-.051c-3.72-.001-7.442-.01-11.163-.038-4.153-.031-8.306-.022-12.459-.01l-3.71-.045c-8.641.074-13.772 1.82-19.808 8.02M106.381 160.25c-3.492 5.678-5.194 11.92-6.942 18.29q-.785 2.805-1.574 5.609l-.845 3.006c-1.584 5.559-3.242 11.095-4.893 16.635a1920 1920 0 0 0-7 24c-2.605 9.186-5.316 18.34-8.04 27.492a1707 1707 0 0 0-5.96 20.508c-2.605 9.186-5.316 18.34-8.04 27.492a1912 1912 0 0 0-6.667 23c-2.419 8.505-4.937 16.98-7.464 25.452-2.035 6.833-4.015 13.672-5.845 20.563-.876 2.665-1.898 5.125-3.046 7.68l-1.098 2.449-.84 1.864a83173 83173 0 0 0 141.679.278c15.74.022 31.479.061 47.218.107q24.228.07 48.457.085 14.947.009 29.896.07 10.252.038 20.506.027c3.943-.003 7.885.002 11.827.029q5.421.035 10.842.008c1.917-.003 3.834.018 5.751.04 8.438-.072 15.31-1.592 21.73-7.356 3.737-3.908 5.52-8.107 7.031-13.226l.733-2.332a571 571 0 0 0 2.33-7.73l.832-2.791a2003 2003 0 0 0 5.277-18.113c1.449-5.036 2.92-10.066 4.39-15.096l1.75-6c31.5-108 31.5-108 32.378-111.005q.867-2.977 1.73-5.956c1.52-5.237 3.072-10.46 4.674-15.672l.998-3.293a635 635 0 0 1 1.926-6.235c2.084-6.846 2.084-6.846 1.045-13.84-2.467-3.602-2.467-3.602-6-6a93 93 0 0 0-5.122-.136l-3.308-.016-3.664-.001-3.87-.014a5112 5112 0 0 0-10.668-.022q-5.747-.01-11.494-.028-13.89-.036-27.78-.052l-7.846-.012a61771 61771 0 0 0-60.005-.069l-2.834-.002a23700 23700 0 0 1-45.433-.087q-23.32-.064-46.64-.072c-8.73-.003-17.46-.015-26.189-.048q-11.154-.043-22.309-.027c-3.792.005-7.585.002-11.377-.023-4.118-.027-8.234-.014-12.352.002l-3.61-.043c-9.976.095-17.778 2.774-24.245 10.611"/></svg>